<svg width="88" height="88" viewBox="0 0 88 88" fill="none" xmlns="http://www.w3.org/2000/svg">
<g clip-path="url(#clip0)">
<path d="M5.28933 50.1769C5.6494 50.2353 6.01381 50.2623 6.37841 50.2576L68.4606 50.2575L67.1069 50.8872C65.7837 51.5135 64.5799 52.3658 63.5495 53.4057L46.1401 70.8151C43.8472 73.0039 43.462 76.525 45.2271 79.1578C47.2815 81.9634 51.2212 82.5726 54.027 80.5182C54.2537 80.3522 54.4692 80.1711 54.6716 79.9763L86.1534 48.4946C88.6137 46.037 88.6158 42.0504 86.1583 39.5901C86.1567 39.5886 86.155 39.5868 86.1534 39.5852L54.6716 8.10347C52.2094 5.64808 48.2228 5.65359 45.7672 8.11586C45.574 8.30967 45.3935 8.51587 45.2271 8.7331C43.4619 11.366 43.8472 14.887 46.1401 17.0758L63.518 34.5167C64.4418 35.4414 65.5039 36.2169 66.6662 36.8148L68.5551 37.6648L6.7249 37.6648C3.50845 37.5454 0.686497 39.7922 0.0822415 42.9538C-0.474391 46.3863 1.85684 49.62 5.28933 50.1769Z" fill="white"/>
</g>
<defs>
<clipPath id="clip0">
<rect width="88" height="88" fill="white" transform="translate(88 88) rotate(180)"/>
</clipPath>
</defs>
</svg>
